<svg width="14" height="12" viewBox="0 0 14 12" fill="none" xmlns="http://www.w3.org/2000/svg">
<path fill-rule="evenodd" clip-rule="evenodd" d="M6.95017 0.639421C7.95073 0.00684156 9.27989 -0.167918 10.4281 0.200061C12.9258 1.00555 13.7012 3.72847 13.0077 5.89512C11.9376 9.298 7.36738 11.8363 7.17354 11.9428C7.10463 11.9809 7.02832 12 6.95202 12C6.87572 12 6.80003 11.9815 6.73111 11.944C6.5385 11.8388 2.00153 9.338 0.895751 5.89574L0.895136 5.89512C0.201022 3.72786 0.973901 1.00432 3.46914 0.200061C4.64077 -0.178994 5.91762 -0.0122343 6.95017 0.639421ZM3.7522 1.07878C1.73324 1.72982 1.22619 3.90139 1.77447 5.6139C2.63719 8.29806 6.04561 10.4684 6.9514 11.0056C7.86027 10.4629 11.2933 8.26852 12.1283 5.61637C12.6766 3.902 12.1677 1.73044 10.1457 1.07878C9.16605 0.764337 8.02334 0.95571 7.23446 1.56614C7.06955 1.6929 6.84064 1.69536 6.6745 1.56983C5.83885 0.941557 4.74722 0.757568 3.7522 1.07878ZM9.55495 2.3008C10.3937 2.57217 10.9813 3.3149 11.0533 4.193C11.0736 4.44714 10.8847 4.6699 10.6306 4.6902C10.6177 4.69143 10.6053 4.69205 10.5924 4.69205C10.3543 4.69205 10.1525 4.50929 10.1328 4.26807C10.0921 3.76226 9.7537 3.3352 9.27189 3.17952C9.02882 3.10076 8.89591 2.84046 8.97406 2.59863C9.05344 2.35618 9.31127 2.2245 9.55495 2.3008Z" fill="#3D1A53"/>
</svg>
