<svg width="20" height="20" viewBox="0 0 20 20" fill="none" xmlns="http://www.w3.org/2000/svg">
<path fill-rule="evenodd" clip-rule="evenodd" d="M9.84097 0C15.0239 0 19.2398 4.21587 19.2398 9.39884C19.2398 11.8441 18.3014 14.0744 16.7657 15.7482L19.7875 18.7636C20.0702 19.0464 20.0712 19.5039 19.7884 19.7867C19.6475 19.9295 19.4612 20 19.2759 20C19.0916 20 18.9062 19.9295 18.7644 19.7886L15.7062 16.739C14.0974 18.0273 12.0577 18.7986 9.84097 18.7986C4.658 18.7986 0.441162 14.5818 0.441162 9.39884C0.441162 4.21587 4.658 0 9.84097 0ZM9.84097 1.44776C5.45619 1.44776 1.88892 5.01407 1.88892 9.39884C1.88892 13.7836 5.45619 17.3509 9.84097 17.3509C14.2248 17.3509 17.7921 13.7836 17.7921 9.39884C17.7921 5.01407 14.2248 1.44776 9.84097 1.44776Z" fill="#3D1A53"/>
</svg>
